M48
; DRILL file {KiCad (5.1.5)-3} date 2021/06/18 8:18:57
; FORMAT={3:3/ absolute / metric / suppress leading zeros}
; #@! TF.CreationDate,2021-06-18T08:18:57+09:00
; #@! TF.GenerationSoftware,Kicad,Pcbnew,(5.1.5)-3
FMAT,2
METRIC,TZ
T1C0.300
T2C1.000
T3C3.200
%
G90
G05
T1
X1905Y87065
X1905Y78175
X1905Y62065
X1905Y53175
X1905Y37065
X1905Y28175
X1905Y12065
X1905Y3175
X2540Y97860
X2540Y72860
X2540Y47860
X2540Y22860
X11430Y97860
X11430Y72860
X11430Y47860
X11430Y22860
X22860Y97860
X22860Y88970
X22860Y72860
X22860Y63970
X22860Y47860
X22860Y38970
X22860Y22860
X22860Y13970
X26905Y87065
X26905Y78175
X26905Y62065
X26905Y53175
X26905Y37065
X26905Y28175
X26905Y12065
X26905Y3175
X27540Y97860
X27540Y72860
X27540Y47860
X27540Y22860
X36430Y97860
X36430Y72860
X36430Y47860
X36430Y22860
X47860Y97860
X47860Y88970
X47860Y72860
X47860Y63970
X47860Y47860
X47860Y38970
X47860Y22860
X47860Y13970
X51905Y87065
X51905Y78175
X51905Y62065
X51905Y53175
X51905Y37065
X51905Y28175
X51905Y12065
X51905Y3175
X52540Y97860
X52540Y72860
X52540Y47860
X52540Y22860
X61430Y97860
X61430Y72860
X61430Y47860
X61430Y22860
X72860Y97860
X72860Y88970
X72860Y72860
X72860Y63970
X72860Y47860
X72860Y38970
X72860Y22860
X72860Y13970
X76905Y87065
X76905Y78175
X76905Y62065
X76905Y53175
X76905Y37065
X76905Y28175
X76905Y12065
X76905Y3175
X77540Y97860
X77540Y72860
X77540Y47860
X77540Y22860
X86430Y97860
X86430Y72860
X86430Y47860
X86430Y22860
X97860Y97860
X97860Y88970
X97860Y72860
X97860Y63970
X97860Y47860
X97860Y38970
X97860Y22860
X97860Y13970
T2
X33000Y78000
X35540Y78000
X38080Y78000
X58000Y78000
X60540Y78000
X63080Y78000
X58000Y28000
X60540Y28000
X63080Y28000
X8000Y28000
X10540Y28000
X13080Y28000
X33000Y53000
X35540Y53000
X38080Y53000
X83000Y3000
X85540Y3000
X88080Y3000
X8000Y78000
X10540Y78000
X13080Y78000
X8000Y3000
X10540Y3000
X13080Y3000
X58000Y3000
X60540Y3000
X63080Y3000
X33000Y3000
X35540Y3000
X38080Y3000
X8000Y53000
X10540Y53000
X13080Y53000
X83000Y78000
X85540Y78000
X88080Y78000
X83000Y53000
X85540Y53000
X88080Y53000
X33000Y28000
X35540Y28000
X38080Y28000
X83000Y28000
X85540Y28000
X88080Y28000
X58000Y53000
X60540Y53000
X63080Y53000
T3
X46000Y29000
X21000Y29000
X96000Y29000
X71000Y79000
X96000Y54000
X71000Y4000
X96000Y79000
X21000Y79000
X46000Y4000
X71000Y29000
X21000Y4000
X96000Y4000
X71000Y54000
X46000Y54000
X46000Y79000
X21000Y54000
T0
M30
